<?xml version="1.0" encoding="UTF-8" standalone="no"?>
<svg
   viewBox="0 0 465 484"
   width="465"
   height="484"
   version="1.1"
   id="svg82"
   sodipodi:docname="Screenshot from 2025-01-08 00-13-15.svg"
   inkscape:export-filename="/home/abdulzaf/Downloads/neuroflow-light.png"
   inkscape:export-xdpi="393.57001"
   inkscape:export-ydpi="393.57001"
   inkscape:version="1.1.2 (0a00cf5339, 2022-02-04)"
   xmlns:inkscape="http://www.inkscape.org/namespaces/inkscape"
   xmlns:sodipodi="http://sodipodi.sourceforge.net/DTD/sodipodi-0.dtd"
   xmlns="http://www.w3.org/2000/svg"
   xmlns:svg="http://www.w3.org/2000/svg">
  <defs
     id="defs86" />
  <sodipodi:namedview
     id="namedview84"
     pagecolor="#ffffff"
     bordercolor="#666666"
     borderopacity="1.0"
     inkscape:pageshadow="2"
     inkscape:pageopacity="0.0"
     inkscape:pagecheckerboard="0"
     showgrid="false"
     inkscape:zoom="1.2149713"
     inkscape:cx="210.29303"
     inkscape:cy="296.71482"
     inkscape:window-width="1850"
     inkscape:window-height="1136"
     inkscape:window-x="0"
     inkscape:window-y="0"
     inkscape:window-maximized="1"
     inkscape:current-layer="svg82"
     inkscape:snap-smooth-nodes="false"
     inkscape:snap-intersection-paths="false"
     inkscape:snap-object-midpoints="true"
     inkscape:snap-midpoints="true"
     inkscape:object-nodes="false" />
  <g
     fill="None"
     fill-opacity="0"
     stroke="#fefefe"
     stroke-opacity="1"
     stroke-width="0.3"
     id="g8"
     transform="matrix(-1,0,0,1,465,0)"
     style="stroke:#ffffff;stroke-opacity:1;stroke-width:24;stroke-miterlimit:4;stroke-dasharray:none;fill:#385ef3;fill-opacity:0.89803922">
    <path
       d="m 103,201 c 25.14,0.5 46.1,-6.22 64.25,-23.75 C 185.4,159.71 192,137.95 192,113 192,68.06 150.14,34.51 107,35 63.86,35.49 26.43,72.92 26,116 c -0.43,43.08 32.69,84.11 77,85 z"
       id="path6"
       style="stroke:#ffffff;stroke-opacity:1;stroke-width:24;stroke-miterlimit:4;stroke-dasharray:none;fill:#385ef3;fill-opacity:0.89803922" />
  </g>
  <g
     fill="None"
     fill-opacity="0"
     stroke="#fefefe"
     stroke-opacity="1"
     stroke-width="0.3"
     id="g12"
     transform="matrix(-1,0,0,1,465,0)"
     style="stroke:#23354b;stroke-opacity:1;stroke-width:24;stroke-miterlimit:4;stroke-dasharray:none">
    <path
       d="m 276,113 c 0,2.33 0.04,4.67 0,7 -0.04,2.42 -0.84,5.3 -1,7 -1.64,81.97 -74.89,155.36 -157,157 -1.75,0.17 -4.6,0.95 -7,1 -2.66,0.05 -5.34,-0.1 -8,0 C 31.9,287.71 2.09,379.18 50.75,427.25 99.41,475.31 190.76,443.81 192,373 c 0.04,-2.33 -0.04,-4.67 0,-7 0.04,-2.42 0.84,-5.3 1,-7 1.61,-80.71 74.92,-157 157,-157 2.42,-0.23 5.91,-1 9,-1 1.67,0 3.33,0.01 5,0 44.99,-0.31 78.23,-41.52 78,-85 -0.23,-43.48 -38.91,-81.21 -82,-81 -43.09,0.21 -84,33.42 -84,78 z"
       id="path10"
       style="stroke:#23354b;stroke-opacity:1;stroke-width:24;stroke-miterlimit:4;stroke-dasharray:none" />
  </g>
  <g
     fill="None"
     fill-opacity="0"
     stroke="#000000"
     stroke-opacity="1"
     stroke-width="0.3"
     id="g16"
     transform="matrix(-1,0,0,1,465,0)"
     style="stroke:#23354b;stroke-opacity:1;stroke-width:24;stroke-miterlimit:4;stroke-dasharray:none">
    <path
       d="m 192,113 c 0,24.95 -6.6,46.71 -24.75,64.25 C 149.1,194.78 128.14,201.5 103,201 c -19.4,3.15 -35.97,22.02 -36,42 -0.03,19.97 16.77,38.88 36,42 2.66,-0.1 5.34,0.05 8,0 1.75,-0.17 4.6,-0.95 7,-1 82.11,-1.64 155.36,-75.03 157,-157 0.05,-2.41 0.84,-5.31 1,-7 0.04,-2.33 0,-4.67 0,-7 -2.67,-19.59 -21.48,-37.08 -42,-37 -20.51,0.08 -39.15,17.07 -42,37 z"
       id="path14"
       style="stroke:#23354b;stroke-opacity:1;stroke-width:24;stroke-miterlimit:4;stroke-dasharray:none" />
  </g>
  <g
     fill="None"
     fill-opacity="0"
     stroke="#7e7e7e"
     stroke-opacity="1"
     stroke-width="0.3"
     id="g20"
     transform="matrix(-1,0,0,1,465,0)"
     style="stroke:#23354b;stroke-opacity:1;stroke-width:24;stroke-miterlimit:4;stroke-dasharray:none">
    <path
       d="m 275,127 c 0.16,-1.7 0.96,-4.58 1,-7 -0.16,1.69 -0.95,4.59 -1,7 z"
       id="path18"
       style="stroke:#23354b;stroke-opacity:1;stroke-width:24;stroke-miterlimit:4;stroke-dasharray:none" />
  </g>
  <g
     fill="None"
     fill-opacity="0"
     stroke="#737373"
     stroke-opacity="1"
     stroke-width="0.3"
     id="g24"
     transform="matrix(-1,0,0,1,465,0)"
     style="stroke:#23354b;stroke-opacity:1;stroke-width:24;stroke-miterlimit:4;stroke-dasharray:none">
    <path
       d="m 350,202 c 3.12,0 6.61,-0.75 9,-1 -3.09,0 -6.58,0.77 -9,1 z"
       id="path22"
       style="stroke:#23354b;stroke-opacity:1;stroke-width:24;stroke-miterlimit:4;stroke-dasharray:none" />
  </g>
  <g
     fill="None"
     fill-opacity="0"
     stroke="#000000"
     stroke-opacity="1"
     stroke-width="0.3"
     id="g28"
     transform="matrix(-1,0,0,1,465,0)"
     style="stroke:#23354b;stroke-opacity:1;stroke-width:24;stroke-miterlimit:4;stroke-dasharray:none">
    <path
       d="m 350,202 c -82.08,0 -155.39,76.29 -157,157 -0.05,2.41 -0.84,5.31 -1,7 -0.04,2.33 0.04,4.67 0,7 2.66,19.53 21.87,37.12 42,37 20.13,-0.12 39.19,-16.34 42,-36 -0.5,-25.05 6.2,-46.17 23.75,-64.25 C 317.31,291.68 339.06,285 364,285 c 19.86,-2.84 37.06,-21.52 37,-42 -0.07,-20.48 -17.23,-39.45 -37,-42 -1.67,0.01 -3.33,0 -5,0 -2.39,0.25 -5.88,1 -9,1 z"
       id="path26"
       style="stroke:#23354b;stroke-opacity:1;stroke-width:24;stroke-miterlimit:4;stroke-dasharray:none" />
  </g>
  <g
     fill="None"
     fill-opacity="0"
     stroke="#7b7b7b"
     stroke-opacity="1"
     stroke-width="0.3"
     id="g32"
     transform="matrix(-1,0,0,1,465,0)"
     style="stroke:#23354b;stroke-opacity:1;stroke-width:24;stroke-miterlimit:4;stroke-dasharray:none">
    <path
       d="m 111,285 c 2.4,-0.05 5.25,-0.83 7,-1 -2.4,0.05 -5.25,0.83 -7,1 z"
       id="path30"
       style="stroke:#23354b;stroke-opacity:1;stroke-width:24;stroke-miterlimit:4;stroke-dasharray:none" />
  </g>
  <g
     fill="None"
     fill-opacity="0"
     stroke="#fefefe"
     stroke-opacity="1"
     stroke-width="0.3"
     id="g36"
     transform="matrix(-1,0,0,1,465,0)"
     style="stroke:#ffffff;stroke-opacity:1;stroke-width:24;stroke-miterlimit:4;stroke-dasharray:none;fill:#385ef3;fill-opacity:0.89803922">
    <path
       d="m 276,374 c 0.9,44.86 42.69,77.82 86,77 43.31,-0.82 79.93,-39.06 80,-82 0.07,-42.94 -33.68,-84 -78,-84 -24.94,0 -46.69,6.68 -64.25,24.75 C 282.2,327.83 275.5,348.95 276,374 Z"
       id="path34"
       style="stroke:#ffffff;stroke-opacity:1;stroke-width:24;stroke-miterlimit:4;stroke-dasharray:none;fill:#385ef3;fill-opacity:0.89803922" />
  </g>
  <g
     fill="None"
     fill-opacity="0"
     stroke="#7e7e7e"
     stroke-opacity="1"
     stroke-width="0.3"
     id="g40"
     transform="matrix(-1,0,0,1,465,0)"
     style="stroke:#23354b;stroke-opacity:1;stroke-width:24;stroke-miterlimit:4;stroke-dasharray:none">
    <path
       d="m 192,366 c 0.16,-1.69 0.95,-4.59 1,-7 -0.16,1.7 -0.96,4.58 -1,7 z"
       id="path38"
       style="stroke:#23354b;stroke-opacity:1;stroke-width:24;stroke-miterlimit:4;stroke-dasharray:none" />
  </g>
  <g
     fill="#000000"
     fill-opacity="1"
     stroke="None"
     id="g56"
     transform="matrix(-1,0,0,1,465,0)"
     style="fill:#23354b;fill-opacity:1;stroke:#ffffff;stroke-opacity:1;stroke-width:24;stroke-miterlimit:4;stroke-dasharray:none;paint-order:normal"
     inkscape:export-filename="/home/abdulzaf/Downloads/neuroflow-dark.png"
     inkscape:export-xdpi="393.57001"
     inkscape:export-ydpi="393.57001">
    <path
       d="m 192,113 c 0,24.95 -6.6,46.71 -24.75,64.25 C 149.1,194.78 128.14,201.5 103,201 c -19.4,3.15 -35.97,22.02 -36,42 -0.03,19.97 16.77,38.88 36,42 2.66,-0.1 5.34,0.05 8,0 1.75,-0.17 4.6,-0.95 7,-1 82.11,-1.64 155.36,-75.03 157,-157 0.05,-2.41 0.84,-5.31 1,-7 0.04,-2.33 0,-4.67 0,-7 -2.67,-19.59 -21.48,-37.08 -42,-37 -20.51,0.08 -39.15,17.07 -42,37 z"
       id="path54"
       style="fill:#23354b;fill-opacity:1;stroke:#ffffff;stroke-opacity:1;stroke-width:24;stroke-miterlimit:4;stroke-dasharray:none;paint-order:normal" />
  </g>
  <g
     fill="#7e7e7e"
     fill-opacity="1"
     stroke="None"
     id="g60"
     transform="matrix(-1,0,0,1,465,0)"
     style="stroke:#23354b;stroke-opacity:1;stroke-width:24;stroke-miterlimit:4;stroke-dasharray:none">
    <path
       d="m 275,127 c 0.16,-1.7 0.96,-4.58 1,-7 -0.16,1.69 -0.95,4.59 -1,7 z"
       id="path58"
       style="stroke:#23354b;stroke-opacity:1;stroke-width:24;stroke-miterlimit:4;stroke-dasharray:none" />
  </g>
  <g
     fill="#737373"
     fill-opacity="1"
     stroke="None"
     id="g64"
     transform="matrix(-1,0,0,1,465,0)"
     style="stroke:#23354b;stroke-opacity:1;stroke-width:24;stroke-miterlimit:4;stroke-dasharray:none">
    <path
       d="m 350,202 c 3.12,0 6.61,-0.75 9,-1 -3.09,0 -6.58,0.77 -9,1 z"
       id="path62"
       style="stroke:#23354b;stroke-opacity:1;stroke-width:24;stroke-miterlimit:4;stroke-dasharray:none" />
  </g>
  <g
     fill="#000000"
     fill-opacity="1"
     stroke="None"
     id="g68"
     transform="matrix(-1,0,0,1,465,0)"
     style="fill:#23354b;fill-opacity:1;stroke:#ffffff;stroke-opacity:1;stroke-width:24;stroke-miterlimit:4;stroke-dasharray:none;paint-order:normal"
     inkscape:export-filename="/home/abdulzaf/Downloads/neuroflow-dark.png"
     inkscape:export-xdpi="393.57001"
     inkscape:export-ydpi="393.57001">
    <path
       d="m 350,202 c -82.08,0 -155.39,76.29 -157,157 -0.05,2.41 -0.84,5.31 -1,7 -0.04,2.33 0.04,4.67 0,7 2.66,19.53 21.87,37.12 42,37 20.13,-0.12 39.19,-16.34 42,-36 -0.5,-25.05 6.2,-46.17 23.75,-64.25 C 317.31,291.68 339.06,285 364,285 c 19.86,-2.84 37.06,-21.52 37,-42 -0.07,-20.48 -17.23,-39.45 -37,-42 -1.67,0.01 -3.33,0 -5,0 -2.39,0.25 -5.88,1 -9,1 z"
       id="path66"
       style="fill:#23354b;fill-opacity:1;stroke:#ffffff;stroke-opacity:1;stroke-width:24;stroke-miterlimit:4;stroke-dasharray:none;paint-order:normal" />
  </g>
  <g
     fill="#7b7b7b"
     fill-opacity="1"
     stroke="None"
     id="g72"
     transform="matrix(-1,0,0,1,465,0)"
     style="stroke:#23354b;stroke-opacity:1;stroke-width:24;stroke-miterlimit:4;stroke-dasharray:none">
    <path
       d="m 111,285 c 2.4,-0.05 5.25,-0.83 7,-1 -2.4,0.05 -5.25,0.83 -7,1 z"
       id="path70"
       style="stroke:#23354b;stroke-opacity:1;stroke-width:24;stroke-miterlimit:4;stroke-dasharray:none" />
  </g>
  <g
     fill="#7e7e7e"
     fill-opacity="1"
     stroke="None"
     id="g80"
     transform="matrix(-1,0,0,1,465,0)"
     style="stroke:#23354b;stroke-opacity:1;stroke-width:24;stroke-miterlimit:4;stroke-dasharray:none">
    <path
       d="m 192,366 c 0.16,-1.69 0.95,-4.59 1,-7 -0.16,1.7 -0.96,4.58 -1,7 z"
       id="path78"
       style="stroke:#23354b;stroke-opacity:1;stroke-width:24;stroke-miterlimit:4;stroke-dasharray:none" />
  </g>
  <g
     fill="#fefefe"
     fill-opacity="1"
     stroke="None"
     id="g52"
     transform="matrix(-1,0,0,1,465,0)"
     style="fill:#385ef3;fill-opacity:0.89803922;stroke:#ffffff;stroke-opacity:1;stroke-width:24;stroke-miterlimit:4;stroke-dasharray:none">
    <path
       d="m 276,113 c 0,2.33 0.04,4.67 0,7 -0.04,2.42 -0.84,5.3 -1,7 -1.64,81.97 -74.89,155.36 -157,157 -1.75,0.17 -4.6,0.95 -7,1 -2.66,0.05 -5.34,-0.1 -8,0 C 31.9,287.71 2.09,379.18 50.75,427.25 99.41,475.31 190.76,443.81 192,373 c 0.04,-2.33 -0.04,-4.67 0,-7 0.04,-2.42 0.84,-5.3 1,-7 1.61,-80.71 74.92,-157 157,-157 2.42,-0.23 5.91,-1 9,-1 1.67,0 3.33,0.01 5,0 44.99,-0.31 78.23,-41.52 78,-85 -0.23,-43.48 -38.91,-81.21 -82,-81 -43.09,0.21 -84,33.42 -84,78 z"
       id="path50"
       style="fill:#385ef3;fill-opacity:0.89803922;stroke:#ffffff;stroke-opacity:1;stroke-width:24;stroke-miterlimit:4;stroke-dasharray:none" />
  </g>
</svg>
